<?xml version="1.0" standalone="no"?>
<!DOCTYPE svg PUBLIC "-//W3C//DTD SVG 20010904//EN"
 "http://www.w3.org/TR/2001/REC-SVG-20010904/DTD/svg10.dtd">
<svg version="1.0" xmlns="http://www.w3.org/2000/svg"
 width="747.000000pt" height="362.000000pt" viewBox="0 0 747.000000 362.000000"
 preserveAspectRatio="xMidYMid meet">

<g transform="translate(0.000000,362.000000) scale(0.100000,-0.100000)"
fill="#000000" stroke="none">
<path d="M1584 2403 l-292 -286 217 -278 216 -278 147 -1 146 0 146 131 c80
72 146 133 146 136 0 8 -133 153 -141 153 -4 0 -59 -45 -121 -100 l-113 -101
-54 3 -55 3 -122 156 -122 157 193 186 194 186 217 -2 218 -3 191 -250 190
-250 3 174 2 174 -142 189 -143 188 -315 -1 -315 0 -291 -286z"/>
<path d="M4639 2581 c-16 -16 -29 -38 -29 -48 0 -10 -1 -208 -3 -441 l-2 -422
128 0 127 0 0 470 0 470 -96 0 c-92 0 -97 -1 -125 -29z"/>
<path d="M3306 2385 c-100 -35 -156 -158 -111 -244 26 -51 112 -117 237 -182
67 -35 131 -72 140 -81 11 -11 18 -33 18 -58 0 -82 -53 -134 -108 -108 -36 17
-52 53 -52 115 0 77 -10 83 -142 83 l-110 0 4 -64 c5 -75 35 -124 98 -156 35
-18 59 -20 230 -20 167 0 195 2 228 19 90 46 127 150 85 238 -23 49 -109 114
-238 179 -141 72 -155 85 -155 141 0 82 42 125 106 109 32 -8 54 -58 54 -124
0 -71 11 -77 139 -77 l106 0 3 40 c7 83 -44 164 -120 191 -48 18 -362 17 -412
-1z"/>
<path d="M4151 2389 c-86 -17 -189 -96 -231 -179 -10 -19 -24 -70 -31 -113
-28 -169 44 -320 188 -393 50 -25 69 -29 138 -29 69 0 88 4 139 30 177 90 245
319 149 508 -64 128 -215 203 -352 176z m86 -29 c17 -6 35 -22 42 -36 15 -34
15 -544 0 -578 -23 -51 -103 -55 -128 -7 -17 30 -15 572 2 593 9 12 40 34 53
38 1 0 15 -5 31 -10z"/>
<path d="M4940 2093 c0 -339 2 -353 63 -397 27 -20 41 -21 275 -21 354 0 332
-27 332 414 l0 311 -52 0 c-98 -1 -157 -34 -189 -105 -16 -35 -19 -69 -19
-288 0 -156 -4 -256 -11 -268 -25 -48 -105 -44 -128 7 -7 16 -11 109 -11 269
0 148 -4 255 -11 272 -26 69 -100 112 -191 113 l-58 0 0 -307z"/>
<path d="M1925 2224 c-77 -69 -144 -129 -149 -134 -5 -5 21 -42 63 -89 l73
-81 118 105 c116 104 118 105 168 105 l51 0 125 -160 125 -159 -191 -186 -191
-185 -221 2 -221 3 -182 239 c-100 131 -187 244 -192 249 -8 8 -11 -41 -11
-164 l0 -175 143 -187 142 -187 315 0 315 1 289 282 c159 155 287 287 285 294
-2 6 -98 133 -214 281 l-210 271 -145 0 -145 1 -140 -126z"/>
<path d="M3230 1480 c0 -16 7 -20 35 -20 l35 0 0 -80 c0 -79 0 -80 25 -80 25
0 25 1 25 80 l0 80 35 0 c28 0 35 4 35 20 0 19 -7 20 -95 20 -88 0 -95 -1 -95
-20z"/>
<path d="M3770 1400 l0 -100 85 0 c78 0 85 2 85 20 0 18 -7 20 -65 20 -58 0
-65 2 -65 20 0 18 7 20 60 20 53 0 60 2 60 20 0 18 -7 20 -61 20 -52 0 -60 2
-57 18 3 14 16 18 66 20 54 3 62 6 62 22 0 18 -7 20 -85 20 l-85 0 0 -100z"/>
<path d="M4348 1484 c-57 -31 -66 -107 -19 -155 25 -24 38 -29 78 -29 28 0 58
7 71 16 22 15 22 17 5 29 -11 9 -22 10 -27 4 -6 -5 -27 -9 -48 -9 -41 0 -58
19 -58 63 0 47 71 77 100 42 10 -12 16 -13 26 -4 51 42 -61 80 -128 43z"/>
<path d="M4860 1400 l0 -100 25 0 c23 0 25 4 25 41 l0 40 48 -3 c47 -3 47 -3
50 -40 3 -30 7 -38 23 -38 18 0 19 8 19 100 0 93 -1 100 -20 100 -17 0 -20 -7
-20 -40 l0 -40 -50 0 -50 0 0 40 c0 36 -2 40 -25 40 l-25 0 0 -100z"/>
</g>
</svg>
